<svg id="Ebene_1" data-name="Ebene 1" xmlns="http://www.w3.org/2000/svg" width="293.27" height="69.17" viewBox="0 0 293.27 69.17"><defs><style>.cls-1,.cls-2{fill:#6f6f6f;}.cls-2{font-size:5.03px;font-family:Montserrat-Bold, Montserrat;font-weight:700;}</style></defs><path class="cls-1" d="M145.37,16.79a7.56,7.56,0,0,1-2.5-1.17L144,13.18a7.38,7.38,0,0,0,2.14,1.06,8.19,8.19,0,0,0,2.48.4,4,4,0,0,0,2-.41,1.26,1.26,0,0,0,.67-1.09,1,1,0,0,0-.4-.83,2.87,2.87,0,0,0-1-.53,17,17,0,0,0-1.64-.44,25.81,25.81,0,0,1-2.63-.76,4.31,4.31,0,0,1-1.74-1.22,3.29,3.29,0,0,1-.74-2.24,3.89,3.89,0,0,1,.67-2.21,4.33,4.33,0,0,1,2-1.57,8,8,0,0,1,3.25-.58,10.37,10.37,0,0,1,2.61.32,7.64,7.64,0,0,1,2.25.92l-1,2.46A7.7,7.7,0,0,0,149,5.36a3.57,3.57,0,0,0-2,.44A1.33,1.33,0,0,0,146.37,7,1.15,1.15,0,0,0,147.12,8a12.68,12.68,0,0,0,2.29.69,20.29,20.29,0,0,1,2.62.76,4.26,4.26,0,0,1,1.76,1.2,3.23,3.23,0,0,1,.73,2.22,3.81,3.81,0,0,1-.68,2.19,4.45,4.45,0,0,1-2,1.57,8.28,8.28,0,0,1-3.25.58A11.42,11.42,0,0,1,145.37,16.79Z" transform="translate(0 9.17)"/><path class="cls-1" d="M156.73,3H160V17h-3.25Z" transform="translate(0 9.17)"/><path class="cls-1" d="M166.2,5.64h-4.49V3h12.2V5.64h-4.47V17H166.2Z" transform="translate(0 9.17)"/><path class="cls-1" d="M186.5,14.4V17H175.65V3h10.58V5.6h-7.35v3h6.49v2.52h-6.49V14.4Z" transform="translate(0 9.17)"/><path class="cls-1" d="M144,23h3.24V37H144Z" transform="translate(0 9.17)"/><path class="cls-1" d="M163.38,23V37h-2.66l-7-8.5V37h-3.2V23h2.67l7,8.5V23Z" transform="translate(0 9.17)"/><path class="cls-1" d="M169.93,25.6v3.7h6.49v2.6h-6.49V37H166.7V23h10.57v2.6Z" transform="translate(0 9.17)"/><path class="cls-1" d="M182.18,36.3a7.14,7.14,0,0,1,0-12.6,8.15,8.15,0,0,1,3.93-.94,8.06,8.06,0,0,1,3.92.94,7.14,7.14,0,0,1,0,12.6,8.06,8.06,0,0,1-3.92.94A8.15,8.15,0,0,1,182.18,36.3Zm6.18-2.39a4,4,0,0,0,1.56-1.59,4.93,4.93,0,0,0,0-4.64,4,4,0,0,0-1.56-1.59,4.71,4.71,0,0,0-4.49,0,4,4,0,0,0-1.56,1.59,4.93,4.93,0,0,0,0,4.64,4,4,0,0,0,1.56,1.59,4.71,4.71,0,0,0,4.49,0Z" transform="translate(0 9.17)"/><path class="cls-1" d="M205.13,37l-2.7-3.9h-3V37h-3.23V23h6.05a7.79,7.79,0,0,1,3.23.62,4.72,4.72,0,0,1,2.11,1.76,4.8,4.8,0,0,1,.74,2.7,4.67,4.67,0,0,1-.75,2.69,4.78,4.78,0,0,1-2.13,1.73l3.14,4.5Zm-.82-10.73a3.4,3.4,0,0,0-2.22-.63h-2.64v4.88h2.64a3.34,3.34,0,0,0,2.22-.64,2.5,2.5,0,0,0,0-3.61Z" transform="translate(0 9.17)"/><path class="cls-1" d="M223.65,37l0-8.4-4.12,6.92h-1.46L214,28.78V37h-3V23h2.68l5.24,8.7L224,23h2.66l0,14Z" transform="translate(0 9.17)"/><path class="cls-1" d="M239.23,34h-6.5l-1.24,3h-3.32l6.24-14h3.2l6.26,14h-3.4Zm-1-2.46L236,26.18l-2.22,5.36Z" transform="translate(0 9.17)"/><path class="cls-1" d="M247.53,25.64h-4.48V23h12.2v2.64h-4.48V37h-3.24Z" transform="translate(0 9.17)"/><path class="cls-1" d="M257,23h3.24V37H257Z" transform="translate(0 9.17)"/><path class="cls-1" d="M266.4,36.3a7,7,0,0,1-2.74-2.59,7.45,7.45,0,0,1,0-7.42,7,7,0,0,1,2.74-2.59,8.15,8.15,0,0,1,3.93-.94,8.06,8.06,0,0,1,3.92.94,7.14,7.14,0,0,1,0,12.6,8.06,8.06,0,0,1-3.92.94A8.15,8.15,0,0,1,266.4,36.3Zm6.17-2.39a4.07,4.07,0,0,0,1.57-1.59,5,5,0,0,0,0-4.64,4.07,4.07,0,0,0-1.57-1.59,4.69,4.69,0,0,0-4.48,0,4.07,4.07,0,0,0-1.57,1.59,5,5,0,0,0,0,4.64,4.07,4.07,0,0,0,1.57,1.59,4.69,4.69,0,0,0,4.48,0Z" transform="translate(0 9.17)"/><path class="cls-1" d="M293.27,23V37h-2.66l-7-8.5V37h-3.2V23h2.68l7,8.5V23Z" transform="translate(0 9.17)"/><path class="cls-1" d="M146.8,56.31a7,7,0,0,1-2.72-2.58,7.59,7.59,0,0,1,0-7.46,7,7,0,0,1,2.72-2.58,8.11,8.11,0,0,1,3.9-.93,8.2,8.2,0,0,1,3.28.64,6.61,6.61,0,0,1,2.48,1.84l-2.08,1.92a4.49,4.49,0,0,0-3.52-1.64,4.73,4.73,0,0,0-2.33.57A4.09,4.09,0,0,0,147,47.68a4.93,4.93,0,0,0,0,4.64,4.09,4.09,0,0,0,1.58,1.59,4.73,4.73,0,0,0,2.33.57,4.45,4.45,0,0,0,3.52-1.66l2.08,1.92A6.59,6.59,0,0,1,154,56.6a8.66,8.66,0,0,1-7.17-.29Z" transform="translate(0 9.17)"/><path class="cls-1" d="M169.48,54.4V57H158.63V43h10.58v2.6h-7.35v3h6.49v2.52h-6.49V54.4Z" transform="translate(0 9.17)"/><path class="cls-1" d="M184.89,43V57h-2.65l-7-8.5V57h-3.21V43h2.68l7,8.5V43Z" transform="translate(0 9.17)"/><path class="cls-1" d="M191.12,45.64h-4.49V43h12.2v2.64h-4.48V57h-3.23Z" transform="translate(0 9.17)"/><path class="cls-1" d="M211.41,54.4V57H200.57V43h10.58v2.6h-7.36v3h6.5v2.52h-6.5V54.4Z" transform="translate(0 9.17)"/><path class="cls-1" d="M222.91,57l-2.7-3.9h-3V57H214V43h6.06a7.82,7.82,0,0,1,3.23.62,4.63,4.63,0,0,1,2.85,4.46,4.56,4.56,0,0,1-2.88,4.42L226.4,57Zm-.81-10.73a3.45,3.45,0,0,0-2.23-.63h-2.63v4.88h2.63a3.39,3.39,0,0,0,2.23-.64,2.55,2.55,0,0,0,0-3.61Z" transform="translate(0 9.17)"/><path class="cls-1" d="M9.68,58A26.25,26.25,0,0,1,0,52.62l3.1-6.53A25.72,25.72,0,0,0,11.69,51a31.48,31.48,0,0,0,10.77,1.89q7.29,0,10.89-2.48A7.61,7.61,0,0,0,37,43.83a6.46,6.46,0,0,0-2-4.91A13.21,13.21,0,0,0,30.12,36c-1.92-.67-4.65-1.42-8.16-2.26a84.1,84.1,0,0,1-10.69-3.18,17.66,17.66,0,0,1-6.95-4.91c-1.93-2.2-2.9-5.18-2.9-8.92A15.07,15.07,0,0,1,3.9,8.3a16.87,16.87,0,0,1,7.5-6A30.37,30.37,0,0,1,23.88,0,39.66,39.66,0,0,1,34.1,1.34,27.08,27.08,0,0,1,42.74,5.2L40,11.9a30.09,30.09,0,0,0-7.88-3.56,29.39,29.39,0,0,0-8.21-1.22q-7.12,0-10.68,2.6a7.94,7.94,0,0,0-3.56,6.7,6.42,6.42,0,0,0,2,4.91,14.07,14.07,0,0,0,5,2.93,77.4,77.4,0,0,0,8.09,2.22,82,82,0,0,1,10.64,3.18,18.15,18.15,0,0,1,6.92,4.86,12.85,12.85,0,0,1,2.89,8.8,14.93,14.93,0,0,1-2.52,8.42,16.79,16.79,0,0,1-7.62,6A31.57,31.57,0,0,1,22.46,60,40.05,40.05,0,0,1,9.68,58Z" transform="translate(0 9.17)"/><path class="cls-1" d="M57.4.67h8.38V59.33H57.4Z" transform="translate(0 9.17)"/><path class="cls-1" d="M93.73,56.1A28.7,28.7,0,0,1,82.62,45.38,29.77,29.77,0,0,1,78.6,30a29.77,29.77,0,0,1,4-15.38A28.61,28.61,0,0,1,93.77,3.9,32.59,32.59,0,0,1,109.69,0a33.17,33.17,0,0,1,12.57,2.31A25.69,25.69,0,0,1,132,9.13l-5.45,5.28A21.85,21.85,0,0,0,110,7.46a24,24,0,0,0-11.82,2.93A21.25,21.25,0,0,0,90,18.48,22.56,22.56,0,0,0,87,30a22.56,22.56,0,0,0,3,11.52,21.25,21.25,0,0,0,8.25,8.09A24,24,0,0,0,110,52.54a21.9,21.9,0,0,0,16.5-7L132,50.78a26,26,0,0,1-9.76,6.87A32.92,32.92,0,0,1,109.61,60,32.35,32.35,0,0,1,93.73,56.1Z" transform="translate(0 9.17)"/><path class="cls-1" d="M117.92,35.46v3.46H104.06V36.17l7.07-6.68a7.48,7.48,0,0,0,1.52-1.85,3.34,3.34,0,0,0,.39-1.53,2,2,0,0,0-.74-1.69,3.51,3.51,0,0,0-2.19-.59,4.93,4.93,0,0,0-2.17.46,4.13,4.13,0,0,0-1.63,1.37l-3.09-2a7.28,7.28,0,0,1,3-2.5,9.93,9.93,0,0,1,4.32-.9,9,9,0,0,1,3.58.66,5.58,5.58,0,0,1,2.38,1.89,4.86,4.86,0,0,1,.85,2.87,6.38,6.38,0,0,1-.63,2.8,10.62,10.62,0,0,1-2.43,3l-4.22,4Z" transform="translate(0 9.17)"/><text class="cls-2" transform="translate(140.38 4.28)">2</text></svg>